<?xml version="1.0" encoding="UTF-8"?><svg id="Layer_2" xmlns="http://www.w3.org/2000/svg" viewBox="0 0 1079 256.98"><g id="Layer_1-2"><path d="M48.39,101.79c13.7-58.62,22.4-67.75,28.17-69.06l1.41-.22c12.94,0,15.22,35.56,16.75,96.57.44,13.7.76,26.64,1.41,36.32.65,11.42,1.52,15.01,1.63,15.01,0,0,2.17-3.26,5.76-15.44,3.26-10.33,6.52-24.47,9.79-37.95,10.01-41.98,15.33-61.23,23.38-61.66,1.41,0,2.83.54,3.92,1.52,4.02,3.92,5,17.29,5,38.17l-.33,41.54c0,6.74,0,13.16.33,18.92.87,18.38,3.04,20.45,3.37,20.45,1.85,0,3.15,1.52,3.26,3.26,0,2.07-1.63,3.04-3.37,3.04-8.16,0-9.9-14.57-9.9-46.11l.33-40.56c0-6.31-.11-12.18-.33-17.4-.76-14.14-2.28-16.31-2.28-16.31,0,.11-2.28,1.74-6.85,16.64-3.37,10.88-6.85,25.67-10.22,39.91-9.79,40.67-14.9,59.27-22.73,59.27-6.31,0-7.29-12.62-8.48-58.51-.54-19.14-1.09-40.67-2.61-57.96-2.5-28.6-6.53-32.41-7.72-32.41-1.74.33-5.87,2.94-13.7,27.62-4.68,14.68-9.68,35.13-15.01,60.46-8.7,41.76-15.12,83.41-15.66,86.67,0,1.63-1.74,2.94-3.15,2.94-1.74,0-3.15-1.52-3.15-3.15.22-3.81,6.2-37.85,10.22-87.87,1.63-19.14,2.18-34.36,2.18-46.22,0-40.35-6.2-43.17-9.68-43.17-2.94,0-5.76,2.39-7.94,4.68-9.13,9.68-15.88,28.6-15.88,39.04,0,2.39.44,3.15.76,5.11,0,1.74-1.74,3.26-3.26,3.26-3.26,0-3.81-4.57-3.81-8.27,0-12.61,7.83-33.17,17.51-43.39,4.89-5.22,9.35-6.74,12.72-6.74,12.4,0,15.99,19.14,15.99,49.7,0,16.2-.65,31.54-.87,34.36.76-2.5,1.41-4.89,3.04-12.07Z" fill="#231f20" stroke-width="0"/><path d="M162.69,152.68c0-3.92.54-8.37,1.52-13.38,6.09-28.49,18.6-41.33,28.6-41.33,5.87.22,9.57,4.02,9.79,9.9,0,2.94-1.09,5.87-3.15,8.16-6.42,7.18-20.77,8.81-24.58,9.13-3.04,7.72-5.76,19.79-5.76,27.62,0,13.59,6.52,15.01,10.66,15.01,1.41,0,2.61-.22,3.37-.43,19.25-4.46,48.5-43.17,48.83-43.5.54-.76,1.63-1.2,2.5-1.2,1.52,0,3.15,1.63,3.15,3.15,0,.65-.22,1.41-.65,1.85-1.09,1.63-34.36,46.44-57.2,46.44-10.33,0-17.07-7.83-17.07-21.42ZM194.66,111.79c1.09-1.31,1.63-2.5,1.63-4.02,0-2.17-.98-3.26-3.04-3.37-4.02,0-10.11,3.04-15.44,13.92,4.24-.44,13.16-2.28,16.86-6.52Z" fill="#231f20" stroke-width="0"/><path d="M226.85,172.69c0-6.63,3.92-38.17,3.92-38.5,2.94-23.71,4.78-33.17,6.09-37.08,0,0,.76-3.26,3.37-3.37h.11c1.63,0,3.15,1.63,3.15,3.26,0,.98-.44,1.96-1.09,2.28-1.2,3.92-3.48,19.9-6.42,44.91,0,0,2.94-7.29,4.89-12.07,8.26-20.23,16.2-30.45,24.03-30.45h.87c16.64,1.63,3.48,51.44,16.42,52.96,7.4,0,23.92-17.83,33.06-29.8.54-.87,1.63-1.31,2.61-1.31,1.52,0,3.15,1.63,3.15,3.15,0,.54-.22,1.31-.65,1.96-.33.33-6.63,8.7-14.68,16.86-10,10.33-17.83,15.55-23.71,15.55-19.9,0-8.59-52.74-16.96-53.07-3.15,0-13.81,4.78-31.21,64.27l-.54,1.74c-.76,2.18-2.83,2.39-3.26,2.39-2.5,0-3.04-1.96-3.15-3.7Z" fill="#231f20" stroke-width="0"/><path d="M403.46,101.79c13.7-58.62,22.4-67.75,28.17-69.06l1.41-.22c12.94,0,15.22,35.56,16.75,96.57.43,13.7.76,26.64,1.41,36.32.65,11.42,1.52,15.01,1.63,15.01,0,0,2.17-3.26,5.76-15.44,3.26-10.33,6.52-24.47,9.79-37.95,10.01-41.98,15.33-61.23,23.38-61.66,1.41,0,2.83.54,3.92,1.52,4.02,3.92,5,17.29,5,38.17l-.33,41.54c0,6.74,0,13.16.33,18.92.87,18.38,3.04,20.45,3.37,20.45,1.85,0,3.15,1.52,3.26,3.26,0,2.07-1.63,3.04-3.37,3.04-8.16,0-9.9-14.57-9.9-46.11l.33-40.56c0-6.31-.11-12.18-.33-17.4-.76-14.14-2.28-16.31-2.28-16.31,0,.11-2.28,1.74-6.85,16.64-3.37,10.88-6.85,25.67-10.22,39.91-9.79,40.67-14.9,59.27-22.73,59.27-6.31,0-7.29-12.62-8.48-58.51-.54-19.14-1.09-40.67-2.61-57.96-2.5-28.6-6.53-32.41-7.72-32.41-1.74.33-5.87,2.94-13.7,27.62-4.68,14.68-9.68,35.13-15.01,60.46-8.7,41.76-15.12,83.41-15.66,86.67,0,1.63-1.74,2.94-3.15,2.94-1.74,0-3.15-1.52-3.15-3.15.22-3.81,6.2-37.85,10.22-87.87,1.63-19.14,2.18-34.36,2.18-46.22,0-40.35-6.2-43.17-9.68-43.17-2.94,0-5.76,2.39-7.94,4.68-9.13,9.68-15.88,28.6-15.88,39.04,0,2.39.44,3.15.76,5.11,0,1.74-1.74,3.26-3.26,3.26-3.26,0-3.81-4.57-3.81-8.27,0-12.61,7.83-33.17,17.51-43.39,4.89-5.22,9.35-6.74,12.72-6.74,12.4,0,15.99,19.14,15.99,49.7,0,16.2-.65,31.54-.87,34.36.76-2.5,1.41-4.89,3.04-12.07Z" fill="#231f20" stroke-width="0"/><path d="M550.49,160.84c0-11.96,4.68-29.47,6.63-35.67,0,0-2.17,2.83-4.57,6.2-16.53,22.62-23.82,26.75-27.95,26.75l-1.09-.11c-2.07-.33-5.65-2.61-5.65-9.68,0-12.4,9.03-36.65,18.38-43.61,3.04-2.28,6.2-3.15,9.03-3.15,7.29,0,12.72,5.76,13.7,9.35,3.37-5,6.09-9.46,6.31-9.79,1.41-1.74,3.15-1.63,4.46-.87,2.39,1.2,1.41,3.37,1.41,3.37-4.68,12.18-14.35,41.76-14.35,57.2,0,3.04.33,5.44,1.2,7.07.54,1.09.98,1.2,1.41,1.31l.98.11c9.13,0,26.64-27.19,35.89-45.24.54-1.09,1.85-1.74,2.94-1.74,1.52,0,3.04,1.41,3.04,3.05,0,.43-.11,1.09-.22,1.3,0,.22-6.63,13.16-15.01,25.23-10.66,15.77-19.58,23.71-26.75,23.71-5.76,0-9.79-4.89-9.79-14.79ZM547.44,127.67c1.96-2.72,3.92-5.44,5.66-8.16.43-.76.65-1.74.65-2.83,0-2.39-1.09-4.89-3.26-6.74-.98-.87-2.72-2.07-5.11-2.07-1.63,0-3.37.44-5.44,1.96-7.61,5.65-15.77,27.4-15.77,38.17,0,1.52.33,3.7.54,3.7,1.2,0,6.42-1.85,22.73-24.03Z" fill="#231f20" stroke-width="0"/><path d="M650.75,220.44c.22-28.17,3.26-55.25,7.5-83.96l.54-4.02c-6.52,11.96-25.12,41.98-38.71,54.92-5.33,5-10.01,7.72-13.81,7.72-2.83,0-6.96-1.52-9.57-8.16-2.17-5.65-3.04-14.35-3.04-24.14,0-23.27,4.57-53.5,7.07-68.73,2.07-11.85,4.46-24.25,6.74-34.26-13.81,1.2-27.19,2.5-37.19,3.48-1.63,0-3.26-1.2-3.37-3.15,0-1.41,1.3-3.04,2.72-3.15.33-.11,16.96-1.74,39.37-3.59,5.33-23.49,9.68-36.76,14.68-36.76,1.63,0,3.37,1.52,3.37,3.26,0,1.41-1.41,3.15-2.39,3.15-1.52,1.85-5.22,13.16-9.03,29.69,21.53-1.85,33.28-2.61,58.94-4.35,3.15-13.27,6.42-25.23,9.46-33.6,4.46-12.51,7.61-14.68,10.22-14.79,2.83,0,5,3.37,5,9.03,0,9.79-4.57,27.4-7.83,38.39,14.68-.76,28.17-1.2,38.71-1.2,15.12,0,24.79.87,28.71,2.72,1.09.44,1.85,1.74,1.85,2.94-.33,1.85-1.2,3.15-3.37,3.15l-1.09-.22c-3.37-1.63-12.4-2.28-25.23-2.28-11.75,0-26.32.54-41.43,1.41-6.31,20.99-13.92,41.43-20.99,57.64-7.4,41.98-11.42,85.48-11.42,108.42,0,21.21,3.15,30.67,5.76,30.67.54,0,.76-.33,2.39-.65,2.17,0,2.83,1.41,3.26,3.15,0,2.94-3.7,3.81-5.66,3.81-7.94,0-12.18-11.2-12.18-36.54ZM655.86,123.65c2.07-4.13,4.35-8.92,6.52-14.03,3.37-19.9,7.18-39.37,10.77-54.7-19.14,1.2-40.67,2.83-59.16,4.35-6.96,31.65-13.92,76.67-13.92,103.31,0,9.9.76,17.29,2.39,21.86,1.63,4.24,3.15,4.24,3.81,4.24,9.35,0,33.6-34.15,49.59-65.03ZM682.73,54.37l-3.05.11c-2.39,10.66-5,23.16-5.55,25.77.76-1.85,5.22-14.79,8.59-25.88ZM684.68,47.74c5.76-19.68,8.26-33.6,8.26-38.93v-.98l.22.98c-.33.44-4.13,7.83-10.11,31.86l-1.74,7.29,3.37-.22Z" fill="#231f20" stroke-width="0"/><path d="M685.99,152.68c0-3.92.54-8.37,1.52-13.38,6.09-28.49,18.6-41.33,28.6-41.33,5.87.22,9.57,4.02,9.79,9.9,0,2.94-1.09,5.87-3.15,8.16-6.42,7.18-20.77,8.81-24.58,9.13-3.04,7.72-5.76,19.79-5.76,27.62,0,13.59,6.52,15.01,10.66,15.01,1.41,0,2.61-.22,3.37-.43,19.25-4.46,48.5-43.17,48.83-43.5.54-.76,1.63-1.2,2.5-1.2,1.52,0,3.15,1.63,3.15,3.15,0,.65-.22,1.41-.65,1.85-1.09,1.63-34.37,46.44-57.2,46.44-10.33,0-17.07-7.83-17.07-21.42ZM717.96,111.79c1.09-1.31,1.63-2.5,1.63-4.02,0-2.17-.98-3.26-3.04-3.37-4.02,0-10.11,3.04-15.44,13.92,4.24-.44,13.16-2.28,16.86-6.52Z" fill="#231f20" stroke-width="0"/><path d="M764.72,185.31c0-17.29,11.2-48.07,14.9-57.86-6.31,1.52-13.27,2.5-19.03,2.5-13.48,0-20.66-5.98-20.66-14.79,0-9.68,10.77-24.58,21.97-24.58,3.37,0,5.22,1.85,6.09,3.26.87,1.52,1.3,3.59,1.3,5.66,0,7.94-4.89,19.68-6.96,24.03,3.92,0,11.31-.98,21.64-3.81l.65-.11c1.63,0,3.37,1.52,3.37,3.26l-.22,1.09c-5.22,13.16-16.75,45.78-16.75,61.34,0,2.61.33,4.57.98,5.98.54.98.44.98,1.63,1.2,2.17,0,9.35-3.05,27.3-31.32,10.88-17.18,20.12-35.13,20.23-35.34.54-1.09,1.74-1.74,2.83-1.74,1.52,0,3.15,1.52,3.15,3.26,0,.43-.11.98-.43,1.52-.11.11-9.35,18.16-20.34,35.67-18.38,28.93-27.51,34.26-32.73,34.26-6.31,0-8.92-5.98-8.92-13.48ZM762.98,99.51c.11-2.39-1.09-2.5-1.09-2.5-4.57-.22-10.98,5.44-14.03,11.96-.76,1.63-1.63,3.92-1.63,6.31,0,3.26.98,6.74,9.24,7.94,3.37-7.29,7.29-18.16,7.5-23.71Z" fill="#231f20" stroke-width="0"/><path d="M893.37,233.81c-1.74-.11-2.94-1.85-3.05-4.13l-.11-5.76c0-20.88,3.26-63.62,8.05-106.47,3.37-29.36,5.76-45.13,8.48-61.23-23.82,4.89-50.79,10.66-73.41,15.55-1.85,0-3.59-.65-3.81-3.04,0-1.41,1.09-2.83,2.5-3.26,7.29-1.52,41.54-8.92,75.91-15.99,3.92-19.25,6.74-20.23,8.26-20.88,2.28-.98,5.44,1.31,5.33,3.48,0,1.63-1.52,3.04-3.26,3.15-.76,1.3-2.07,6.09-3.48,12.83,33.28-6.63,67.97-13.16,76.67-13.16,2.07.11,4.24.43,4.24,3.15-.22,1.74-1.31,3.26-3.37,3.26l-1.41-.11c-7.18,0-40.24,6.09-77.43,13.7-6.42,33.82-15.99,121.69-16.64,158.56,0,1.09.22,1.85.65,1.85,2.17.33,3.15,1.52,3.15,4.13-.11,1.3-.76,2.94-1.52,5.98-1.52,5.66-2.72,8.16-4.89,8.37h-.87Z" fill="#231f20" stroke-width="0"/><path d="M941.87,172.37c-8.92,0-13.59-9.03-13.59-21.42,0-14.25,5.87-32.08,14.14-39.8v.22c.87-4.68,3.92-7.07,8.37-7.4,2.17,0,5,.98,7.29,4.24,3.48,4.68,5,13.59,5,23.05v1.31c3.26,1.63,7.39,2.61,11.85,2.61,15.01,0,28.93-11.31,29.14-11.53.65-.44,1.41-.76,2.07-.76,1.52,0,3.15,1.63,3.15,3.15,0,.87-.43,1.85-1.09,2.5-.65.54-15.99,13.05-33.39,13.05-4.46,0-9.24-.98-12.18-2.28-1.41,17.62-8.92,32.84-20.55,33.06h-.22ZM956.66,136.15c-7.07-4.46-12.18-11.96-13.27-16.31-4.78,6.31-8.7,20.12-8.7,31.32,0,8.92,2.17,14.79,6.96,14.79h.33c8.26,0,13.59-14.57,14.68-29.8ZM952.96,111.79c-.98-1.2-1.52-1.41-2.17-1.41h-.33c-.65.11-1.85.33-1.85,3.15,0,4.68,3.48,11.31,8.16,14.9-.11-6.2-1.41-13.16-3.81-16.64Z" fill="#231f20" stroke-width="0"/><path d="M1011.58,172.37c-8.92,0-13.59-9.03-13.59-21.42,0-14.25,5.87-32.08,14.14-39.8v.22c.87-4.68,3.92-7.07,8.37-7.4,2.17,0,5,.98,7.29,4.24,3.48,4.68,5,13.59,5,23.05v1.31c3.26,1.63,7.39,2.61,11.85,2.61,15.01,0,28.93-11.31,29.14-11.53.65-.44,1.41-.76,2.07-.76,1.52,0,3.15,1.63,3.15,3.15,0,.87-.43,1.85-1.09,2.5-.65.54-15.99,13.05-33.39,13.05-4.46,0-9.24-.98-12.18-2.28-1.41,17.62-8.92,32.84-20.55,33.06h-.22ZM1026.37,136.15c-7.07-4.46-12.18-11.96-13.27-16.31-4.78,6.31-8.7,20.12-8.7,31.32,0,8.92,2.17,14.79,6.96,14.79h.33c8.26,0,13.59-14.57,14.68-29.8ZM1022.67,111.79c-.98-1.2-1.52-1.41-2.17-1.41h-.33c-.65.11-1.85.33-1.85,3.15,0,4.68,3.48,11.31,8.16,14.9-.11-6.2-1.41-13.16-3.81-16.64Z" fill="#231f20" stroke-width="0"/></g></svg>