<?xml version="1.0" encoding="UTF-8"?><svg id="Layer_1" xmlns="http://www.w3.org/2000/svg" viewBox="0 0 534.8 540"><path d="M83.05,243.77c16.73-71.59,27.36-82.74,34.4-84.34l1.73-.27c15.8,0,18.59,43.43,20.45,117.94.53,16.73.93,32.54,1.73,44.36.8,13.95,1.86,18.33,1.99,18.33,0,0,2.66-3.98,7.04-18.86,3.98-12.62,7.97-29.88,11.95-46.35,12.22-51.27,18.73-74.77,28.55-75.3,1.73,0,3.45.66,4.78,1.86,4.91,4.78,6.11,21.12,6.11,46.62l-.4,50.73c0,8.23,0,16.07.4,23.11,1.06,22.45,3.72,24.97,4.12,24.97,2.26,0,3.85,1.86,3.98,3.98,0,2.52-1.99,3.72-4.12,3.72-9.96,0-12.09-17.8-12.09-56.31l.4-49.54c0-7.7-.13-14.88-.4-21.25-.93-17.27-2.79-19.92-2.79-19.92,0,.13-2.79,2.12-8.37,20.32-4.12,13.28-8.37,31.34-12.48,48.74-11.95,49.67-18.2,72.38-27.76,72.38-7.7,0-8.9-15.41-10.36-71.45-.66-23.38-1.33-49.67-3.19-70.79-3.05-34.93-7.97-39.58-9.43-39.58-2.12.4-7.17,3.59-16.73,33.73-5.71,17.93-11.82,42.9-18.33,73.84-10.62,51-18.46,101.87-19.12,105.85,0,1.99-2.12,3.59-3.85,3.59-2.12,0-3.85-1.86-3.85-3.85.27-4.65,7.57-46.22,12.48-107.31,1.99-23.38,2.66-41.97,2.66-56.45,0-49.27-7.57-52.73-11.82-52.73-3.59,0-7.04,2.92-9.7,5.71-11.16,11.82-19.39,34.93-19.39,47.68,0,2.92.53,3.85.93,6.24,0,2.12-2.12,3.98-3.98,3.98-3.98,0-4.65-5.58-4.65-10.09,0-15.41,9.56-40.51,21.38-52.99,5.98-6.38,11.42-8.23,15.54-8.23,15.14,0,19.52,23.38,19.52,60.7,0,19.79-.8,38.52-1.06,41.97.93-3.05,1.73-5.98,3.72-14.74Z" fill="#231f20" stroke-width="0"/><path d="M223.84,335.68c0-8.37,4.12-47.15,4.12-47.41.93-9.16,2.39-22.05,3.85-32.14.93-6.64,1.73-10.76,2.39-13.41,0,0,1.06-5.18,4.78-5.31,1.99-.13,3.98,1.99,3.98,3.85,0,1.46-.66,2.26-1.2,2.92-1.99,5.84-6.11,44.23-7.44,57.64.66-2.26,5.45-17.53,10.49-29.48,6.51-14.74,13.15-22.05,20.32-22.05,3.32.13,5.98,1.06,8.77,4.38,6.64,7.97,9.83,27.76,10.23,39.05l.4-.93c.66-1.46,1.86-4.12,3.05-6.64,9.3-19.79,18.33-29.88,27.09-29.88,10.36,0,12.88,12.09,15.14,22.71,2.26,11.02,3.72,18.06,9.03,18.73,6.77,0,21.91-14.61,31.21-25.77.8-.8,1.99-1.33,3.05-1.33,1.86,0,3.85,1.86,3.85,3.85,0,.8-.4,1.73-.93,2.52-.27.27-6.38,7.7-14.08,15.01-9.56,8.9-17.27,13.41-23.24,13.41-19.79,0-13.95-41.04-23.91-41.3-10.23,0-24.3,31.34-31.08,52.86-.53,1.46-2.26,2.66-3.85,2.66-2.12-.13-3.85-1.86-3.85-3.85.13-3.72.53-7.17.53-11.82,0-21.91-4.91-45.69-11.42-45.95-2.52,0-6.91,2.92-13.28,17.53-8.23,19.39-14.74,45.69-20.19,61.76-.93,2.66-3.45,2.92-3.85,2.92-3.05,0-3.85-1.99-3.98-4.52Z" fill="#231f20" stroke-width="0"/><path d="M354.53,438.07c-.4,0-3.32-.8-3.32-4.65,1.33-45.02,19.39-171.33,32.54-243.84-45.42,5.45-68.13,9.56-69.33,9.56-2.12,0-3.72-1.73-3.85-3.85,0-1.73,1.59-3.72,3.32-3.85,2.79-.53,34.8-5.58,71.19-9.83l6.11-32.8c8.63-43.16,11.42-45.16,12.88-46.22.66-.53,1.73-.8,2.52-.8,2.26.13,3.98,1.59,3.98,3.98-.27,1.59-.93,2.66-1.86,3.19-2.26,3.72-7.97,29.48-15.54,71.72,27.23-3.05,58.44-5.98,82.08-5.98,14.88,0,26.96,1.2,33.34,4.12,1.2.53,2.26,1.99,2.26,3.59-.53,2.12-1.33,3.85-3.98,3.85l-1.33-.27c-5.58-2.52-16.2-3.59-30.02-3.59-23.38,0-55.38,2.92-83.67,6.24-11.16,61.62-28.69,177.84-32.01,229.5v.53c2.12.27,3.85,1.46,3.85,3.98l-.13.8c0,.13-.93,3.32-2.12,6.24-1.59,5.05-2.92,8.5-5.98,8.5-.27,0-.66,0-.93-.13Z" fill="#231f20" stroke-width="0"/></svg>